<?xml version="1.0" standalone="no"?>
<!DOCTYPE svg PUBLIC "-//W3C//DTD SVG 20010904//EN"
 "http://www.w3.org/TR/2001/REC-SVG-20010904/DTD/svg10.dtd">
<svg version="1.0" xmlns="http://www.w3.org/2000/svg"
 width="192.000000pt" height="192.000000pt" viewBox="0 0 192.000000 192.000000"
 preserveAspectRatio="xMidYMid meet">

<g transform="translate(0.000000,192.000000) scale(0.100000,-0.100000)"
fill="#000000" stroke="none">
<path d="M684 1650 c-65 -37 -118 -97 -156 -178 -27 -56 -30 -70 -26 -140 7
-145 77 -232 186 -232 71 0 118 31 158 103 69 127 35 434 -52 467 -39 15 -55
12 -110 -20z"/>
<path d="M1094 1670 c-53 -21 -86 -130 -85 -280 1 -114 11 -154 49 -213 35
-53 79 -77 142 -77 63 0 107 24 142 77 36 55 51 109 49 178 -3 111 -91 248
-193 299 -55 27 -70 30 -104 16z"/>
<path d="M314 1241 c-42 -26 -69 -65 -88 -130 -31 -105 -18 -201 37 -273 67
-87 181 -117 246 -63 72 61 79 175 18 297 -45 91 -87 143 -138 168 -46 24 -38
24 -75 1z"/>
<path d="M1498 1240 c-73 -39 -165 -189 -175 -284 -8 -80 3 -121 46 -166 35
-37 42 -40 90 -40 94 0 174 63 207 164 36 107 -7 272 -85 324 -40 26 -37 26
-83 2z"/>
<path d="M889 1056 c-83 -22 -135 -60 -191 -144 -28 -42 -87 -111 -131 -152
-97 -92 -130 -151 -131 -235 -1 -97 49 -165 155 -209 51 -21 191 -22 254 -2
66 21 130 20 213 -2 53 -15 84 -17 148 -12 158 15 247 95 248 225 1 78 -37
150 -113 214 -83 71 -111 101 -143 159 -40 70 -82 111 -143 138 -66 29 -110
34 -166 20z"/>
</g>
</svg>
